<svg xmlns="http://www.w3.org/2000/svg" viewBox="0 0 64 64"><g id="_08-light_bulbs" data-name="08-light bulbs"><path d="M44.29,43.09a.689.689,0,0,0-.13.11L44,43H19.6A25.633,25.633,0,0,1,9,24C9,9,19.3,1,32,1S55,9,55,24A25.663,25.663,0,0,1,44.29,43.09Z" style="fill:#b4d3e0"/><path d="M19.6,43H44l.16.2a3.908,3.908,0,0,0-1.4,2.5L42,51s0,.5-1.25,1S37,53,32,53c-5.31,0-7.8-.56-8.97-1.09C22,51.44,22,51,22,51l-.76-5.3a3.952,3.952,0,0,0-1.53-2.61A1.063,1.063,0,0,1,19.6,43Z" style="fill:#a4c9d6"/><path d="M32.127,50c-5.621,0-8.257-.56-9.5-1.09a1.988,1.988,0,0,1-1.04-.761L22,51s0,.44,1.03.91C24.2,52.44,26.69,53,32,53c5,0,7.5-.5,8.75-1S42,51,42,51l.361-2.515A3.557,3.557,0,0,1,41.39,49C40.067,49.5,37.42,50,32.127,50Z" style="fill:#8dbbc9"/><path d="M32,57c4.97,0,9,0,9-2v1.44a3.693,3.693,0,0,1-3.03,3.41,4.776,4.776,0,0,1-1.21.15H27.24a4.776,4.776,0,0,1-1.21-.15A3.693,3.693,0,0,1,23,56.44V55C23,57,27.03,57,32,57Z" style="fill:#77848c"/><path d="M36.76,60a4.776,4.776,0,0,0,1.21-.15L38,60v1a2.006,2.006,0,0,1-2,2H28a2.006,2.006,0,0,1-2-2V60l.03-.15a4.776,4.776,0,0,0,1.21.15Z" style="fill:#2e3b41"/><path d="M23.03,51.91C24.2,52.44,26.69,53,32,53c5,0,7.5-.5,8.75-1H41v3c0,2-4.03,2-9,2s-9,0-9-2V52Z" style="fill:#a2adb3"/><path d="M38,60l-.03-.15a4.776,4.776,0,0,1-1.21.15H27.24a4.776,4.776,0,0,1-1.21-.15L26,60v1a1.96,1.96,0,0,0,.239.925A2,2,0,0,1,28,60.85h8a2,2,0,0,1,1.761,1.075A1.96,1.96,0,0,0,38,61Z" style="fill:#222c30"/><path d="M27,58V56.9c-2.411-.174-4-.641-4-1.9v1.44a3.693,3.693,0,0,0,3.03,3.41,4.776,4.776,0,0,0,1.21.15H29A2,2,0,0,1,27,58Z" style="fill:#9ea9af"/><path d="M37,56.9V58a2,2,0,0,1-2,2h1.76a4.776,4.776,0,0,0,1.21-.15A3.693,3.693,0,0,0,41,56.44V55C41,56.255,39.411,56.722,37,56.9Z" style="fill:#9ea9af"/><path d="M27,56.9V52.78a13.3,13.3,0,0,1-3.97-.87L23,52v3C23,56.255,24.589,56.722,27,56.9Z" style="fill:#bec5cd"/><path d="M40.75,52a14.451,14.451,0,0,1-3.75.778V56.9c2.411-.174,4-.641,4-1.9V52Z" style="fill:#bec5cd"/><path d="M37,58V56.9c-.616.045-1.289.069-2,.084V60A2,2,0,0,0,37,58Z" style="fill:#bec5cd"/><path d="M35,56.98c.711-.015,1.384-.039,2-.084h0V52.778h0c-.593.062-1.258.113-2,.151Z" style="fill:#dce4ed"/><path d="M40,57.143v-.837c-.033.015-.06.033-.094.047l-.015,0a4.607,4.607,0,0,1-.518.177c-.055.015-.116.029-.173.044-.146.037-.3.071-.458.1l-.209.038q-.257.043-.533.078V59.84a4.4,4.4,0,0,0,1.738-.869A1.977,1.977,0,0,0,40,58Z" style="fill:#bec5cd"/><path d="M39.693,52.333c-.121.03-.248.06-.382.09l-.027.006c-.374.081-.8.158-1.284.227V56.8c.184-.024.362-.049.533-.078l.209-.038c.16-.031.312-.065.458-.1.058-.015.118-.029.173-.044a4.607,4.607,0,0,0,.518-.177l.015,0c.035-.015.06-.035.094-.05V52.251l-.233.063Z" style="fill:#dce4ed"/><path d="M35,56.98c-.638.013-1.3.018-2,.019v3h2V56.98Z" style="fill:#9ea9af"/><path d="M35,56.98V52.929c-.613.031-1.275.053-2,.063V57C33.7,57,34.362,56.993,35,56.98Z" style="fill:#bec5cd"/><path d="M12.02,22.712c.336-2.586,2.689-16.911,13.8-18.689a2,2,0,0,1,1.976,2.9c-2.314,4.953-6.678,14.851-7.848,21.4a1.9,1.9,0,0,1-2.941,1.338c-1.91-1.318-4.27-3.437-4.955-6.185A2.077,2.077,0,0,1,12.02,22.712Z" style="fill:#ebf9ff"/><path d="M19.15,28.84c-.05-.03-.1-.07-.15-.1a6.991,6.991,0,0,1,0-11.48c.05-.03.1-.07.15-.1A4.95,4.95,0,0,1,24,11V10a3,3,0,0,1,6,0V36a3,3,0,0,1-6,0V35a4.95,4.95,0,0,1-4.85-6.16Z" style="fill:#fda2b4"/><path d="M44.85,28.84A4.95,4.95,0,0,1,40,35v1a3,3,0,0,1-6,0V10a3,3,0,0,1,6,0v1a4.95,4.95,0,0,1,4.85,6.16c.05.03.1.07.15.1a6.991,6.991,0,0,1,0,11.48C44.95,28.77,44.9,28.81,44.85,28.84Z" style="fill:#fda2b4"/><path d="M27,37a2,2,0,0,0,1.1,1.78A2.7,2.7,0,0,1,27,39a3,3,0,0,1-3-3V35a4.95,4.95,0,0,1-4.85-6.16,6.993,6.993,0,0,0,5.85.87V33a1,1,0,0,0,1,1,1,1,0,0,1,1,1Z" style="fill:#fdbeca"/><path d="M40,35v1a3,3,0,0,1-3,3,2.7,2.7,0,0,1-1.1-.22A2,2,0,0,0,37,37V35a1,1,0,0,1,1-1,1,1,0,0,0,1-1V29.71a6.993,6.993,0,0,0,5.85-.87A4.95,4.95,0,0,1,40,35Z" style="fill:#fdbeca"/><path d="M40,10v1a4.95,4.95,0,0,1,4.85,6.16A6.854,6.854,0,0,0,41,16a6.959,6.959,0,0,0-2,.29V13a1,1,0,0,0-1-1,1,1,0,0,1-1-1V9a2,2,0,0,0-1.1-1.78A2.7,2.7,0,0,1,37,7,3,3,0,0,1,40,10Z" style="fill:#fdbeca"/><path d="M27,9v2a1,1,0,0,1-1,1,1,1,0,0,0-1,1v3.29A6.959,6.959,0,0,0,23,16a6.854,6.854,0,0,0-3.85,1.16A4.95,4.95,0,0,1,24,11V10a3,3,0,0,1,3-3,2.7,2.7,0,0,1,1.1.22A2,2,0,0,0,27,9Z" style="fill:#fdbeca"/><path d="M16.06,22.1a4.484,4.484,0,0,0,5.029,3.867A4.641,4.641,0,0,0,25,21.291v-5A6.959,6.959,0,0,0,23,16a6.854,6.854,0,0,0-3.85,1.16c-.05.03-.1.07-.15.1A6.993,6.993,0,0,0,16.06,22.1Z" style="fill:#fdd7de"/><path d="M45,17.26c-.05-.03-.1-.07-.15-.1A6.854,6.854,0,0,0,41,16a6.959,6.959,0,0,0-2,.29v5a4.641,4.641,0,0,0,3.911,4.671A4.484,4.484,0,0,0,47.94,22.1,6.993,6.993,0,0,0,45,17.26Z" style="fill:#fdd7de"/><path d="M23.831,16.06A7.175,7.175,0,0,0,23,16a6.854,6.854,0,0,0-3.85,1.16c-.05.03-.1.07-.15.1a6.991,6.991,0,0,0,0,11.48c.05.03.1.07.15.1.153.1.319.184.48.274a2.092,2.092,0,0,0,.321-.785A69.133,69.133,0,0,1,23.831,16.06Z" style="fill:#fdd2da"/><path d="M25,13v.216c.146-.345.29-.683.434-1.017A.983.983,0,0,0,25,13Z" style="fill:#fda2b4"/><path d="M23.831,16.06c.388-.973.78-1.924,1.169-2.844V13a.983.983,0,0,1,.434-.8c.578-1.343,1.133-2.589,1.637-3.692a1.948,1.948,0,0,1,.286-.626c.126-.274.245-.53.362-.78-.046-.012-.088-.033-.135-.042A2.87,2.87,0,0,0,27,7a3,3,0,0,0-3,3v1a4.95,4.95,0,0,0-4.85,6.16A6.854,6.854,0,0,1,23,16,7.175,7.175,0,0,1,23.831,16.06Z" style="fill:#fdd2da"/><path d="M19.15,17.16c-.05.03-.1.07-.15.1A6.993,6.993,0,0,0,16.06,22.1a4.473,4.473,0,0,0,4.41,3.884,83.261,83.261,0,0,1,3.361-9.919A7.175,7.175,0,0,0,23,16,6.854,6.854,0,0,0,19.15,17.16Z" style="fill:#fdeef0"/><path d="M32,0C17.645,0,8,9.645,8,24c0,.475.126,11.719,11.111,19.892a2.961,2.961,0,0,1,1.142,1.949L21,51.092a1.828,1.828,0,0,0,1,1.4v3.952a4.555,4.555,0,0,0,3,4.1V61a3,3,0,0,0,3,3h8a3,3,0,0,0,3-3v-.453a4.555,4.555,0,0,0,3-4.1V52.492a1.834,1.834,0,0,0,1-1.4l.75-5.25a2.961,2.961,0,0,1,1.142-1.949C55.874,35.719,56,24.475,56,24,56,9.645,46.355,0,32,0Zm5,61a1,1,0,0,1-1,1H28a1,1,0,0,1-1-1v-.021c.08,0,.155.021.235.021h9.53c.08,0,.155-.018.235-.021Zm-.235-2h-9.53a3.351,3.351,0,0,1-2.959-1.531C26.1,58,28.865,58,32,58s5.9,0,7.724-.531A3.351,3.351,0,0,1,36.765,59Zm7.3-17H40v2h2.283a4.962,4.962,0,0,0-.515,1.558l-.738,5.157C40.758,50.948,39.129,52,32,52v2a33.7,33.7,0,0,0,8-.715V55c0,1-5.008,1-8,1s-8,0-8-1V53.287a17.2,17.2,0,0,0,1.858.36l.284-1.98c-2.291-.327-3-.8-3.172-.951l-.738-5.157A4.959,4.959,0,0,0,21.717,44H38V42H19.935A24.884,24.884,0,0,1,10,24C10,10.636,18.636,2,32,2s22,8.636,22,22A24.883,24.883,0,0,1,44.065,42Z"/><path d="M27.926,53.865q.924.069,2.043.1l.062-2c-.716-.022-1.366-.056-1.957-.1Z"/><path d="M27,6a4,4,0,0,0-4,4v.083A6.01,6.01,0,0,0,18,16a5.4,5.4,0,0,0,.049.719,7.994,7.994,0,0,0,0,12.562A5.4,5.4,0,0,0,18,30a6.01,6.01,0,0,0,5,5.917V36a4,4,0,0,0,8,0V34H29v2a2,2,0,0,1-4,0V35a1,1,0,0,0-1-1,3.991,3.991,0,0,1-3.958-3.589,7.855,7.855,0,0,0,5.244.257l-.572-1.917a6.059,6.059,0,0,1-5.046-.767,5.989,5.989,0,0,1,0-9.968,6.061,6.061,0,0,1,5.046-.768l.57-1.917a8.092,8.092,0,0,0-5.241.241A3.992,3.992,0,0,1,24,12a1,1,0,0,0,1-1V10a2,2,0,0,1,4,0V32h2V10A4,4,0,0,0,27,6Z"/><path d="M45.951,16.719A5.4,5.4,0,0,0,46,16a6.01,6.01,0,0,0-5-5.917V10a4,4,0,0,0-8,0v2h2V10a2,2,0,0,1,4,0v1a1,1,0,0,0,1,1,3.992,3.992,0,0,1,3.957,3.572,8.092,8.092,0,0,0-5.241-.241l.57,1.917a6.065,6.065,0,0,1,5.049.77,5.99,5.99,0,0,1,0,9.966,6.064,6.064,0,0,1-5.047.767l-.572,1.917a7.855,7.855,0,0,0,5.244-.257A3.991,3.991,0,0,1,40,34a1,1,0,0,0-1,1v1a2,2,0,0,1-4,0V14H33V36a4,4,0,0,0,8,0v-.083A6.01,6.01,0,0,0,46,30a5.4,5.4,0,0,0-.049-.719,7.994,7.994,0,0,0,0-12.562Z"/></g></svg>